<?xml version="1.0" standalone="no"?>
<!DOCTYPE svg PUBLIC "-//W3C//DTD SVG 20010904//EN"
 "http://www.w3.org/TR/2001/REC-SVG-20010904/DTD/svg10.dtd">
<svg version="1.0" xmlns="http://www.w3.org/2000/svg"
 width="230.000000pt" height="409.000000pt" viewBox="0 0 230.000000 409.000000"
 preserveAspectRatio="xMidYMid meet">

<g transform="translate(0.000000,409.000000) scale(0.100000,-0.100000)"
fill="#ffffff" stroke="none">
<path d="M790 3994 c-37 -42 -64 -101 -73 -158 -6 -35 -5 -37 8 -20 8 11 15
27 15 37 0 27 28 87 39 87 6 0 11 -9 11 -21 0 -19 3 -18 29 10 32 34 41 37 59
19 7 -7 8 -17 2 -28 -6 -12 -1 -35 19 -77 24 -49 28 -71 26 -119 -2 -32 -11
-74 -20 -92 -11 -21 -14 -42 -10 -62 6 -29 -7 -42 -20 -20 -4 6 -15 8 -26 5
-27 -9 -46 33 -29 64 9 18 14 20 26 10 11 -9 14 -7 14 15 0 14 -6 26 -12 26
-9 0 -13 21 -13 71 0 57 -3 72 -17 80 -10 6 -19 22 -19 37 -1 25 -2 24 -12 -9
-5 -20 -19 -39 -31 -45 -11 -5 -23 -20 -24 -33 -3 -19 -6 -21 -14 -10 -8 11
-9 10 -4 -4 3 -10 6 -34 6 -53 0 -19 5 -34 10 -34 6 0 18 -8 28 -18 19 -19 18
-42 -1 -42 -12 0 -37 -44 -37 -66 0 -6 -20 -30 -44 -52 -48 -44 -49 -54 -5
-45 27 5 29 3 30 -28 1 -19 0 -38 -1 -44 -1 -5 -3 -19 -4 -30 -4 -30 -16 -56
-44 -93 -24 -33 -65 -132 -55 -132 3 0 35 27 71 61 37 33 79 68 93 76 19 12
29 27 33 56 4 22 21 60 39 86 17 25 33 48 34 50 5 8 99 -23 118 -39 23 -19 93
-25 115 -10 13 9 13 12 -2 24 -26 19 -22 32 9 31 38 0 39 21 1 35 -24 9 -28
14 -16 17 9 2 27 -1 38 -7 12 -6 25 -9 28 -5 14 13 -38 42 -87 49 -44 6 -51
10 -52 29 -1 37 -8 67 -24 97 -27 52 -19 58 39 34 13 -5 17 -4 13 3 -4 6 0 14
9 17 13 5 15 2 11 -14 -3 -11 -1 -17 4 -14 6 3 16 1 22 -5 14 -11 57 -4 57 10
0 5 5 9 10 9 6 0 10 -10 10 -22 0 -19 2 -20 10 -8 8 13 11 13 19 1 5 -7 14
-10 20 -7 22 14 10 35 -26 47 -21 6 -42 15 -48 19 -9 7 -49 19 -84 26 -31 6
-42 28 -29 60 10 28 8 35 -18 72 -16 23 -35 42 -41 42 -7 0 -13 3 -13 8 0 4
-16 24 -35 45 -47 51 -90 52 -135 1z m40 -546 c0 -7 -14 -29 -31 -48 l-30 -35
6 35 c6 32 28 60 47 60 4 0 8 -6 8 -12z"/>
<path d="M1085 3611 c-10 -18 3 -45 29 -57 19 -9 28 -7 47 7 20 16 22 20 9 29
-8 5 -24 10 -35 10 -12 0 -26 5 -32 11 -8 8 -13 8 -18 0z"/>
<path d="M1936 3494 c-22 -21 -24 -120 -4 -158 7 -13 6 -21 -3 -27 -9 -5 -14
-28 -14 -63 0 -44 5 -59 24 -80 30 -31 38 -32 67 -6 l21 21 6 -30 c17 -84 67
-103 101 -40 22 40 16 80 -8 59 -19 -15 -31 7 -43 76 -9 47 -8 50 10 50 13 -1
28 11 39 31 17 29 18 34 4 61 -23 44 -39 54 -69 43 -18 -7 -30 -22 -38 -52
-11 -35 -14 -39 -25 -25 -9 13 -7 25 9 57 l20 40 -29 30 c-32 33 -46 36 -68
13z m141 -166 c-3 -8 -6 -5 -6 6 -1 11 2 17 5 13 3 -3 4 -12 1 -19z m-103 -74
c3 -8 2 -12 -4 -9 -6 3 -10 10 -10 16 0 14 7 11 14 -7z"/>
<path d="M215 3382 c-11 -2 -34 -18 -52 -34 -43 -41 -56 -121 -39 -228 6 -35
5 -42 -4 -30 -9 12 -10 8 -6 -20 9 -53 24 -195 30 -285 4 -55 16 -112 42 -185
20 -58 39 -125 44 -150 4 -25 8 -37 9 -28 0 9 6 20 13 24 8 5 9 -2 5 -24 -4
-18 -10 -45 -13 -62 -4 -18 -2 -30 4 -30 17 0 63 92 65 130 1 33 3 35 37 35
34 0 35 -1 38 -42 3 -48 20 -55 60 -27 29 20 29 67 0 94 l-22 21 -9 -23 c-7
-17 -11 -19 -15 -8 -3 8 -11 19 -18 23 -22 13 -17 63 7 78 30 20 44 101 23
140 l-15 30 -27 -19 c-50 -33 -84 -45 -93 -30 -21 33 -9 74 36 122 49 53 54
62 27 47 -15 -8 -20 -4 -30 32 -15 57 -17 77 -9 112 5 21 0 52 -18 102 -17 50
-25 94 -25 141 0 74 -13 101 -45 94z m-40 -164 l3 -43 -13 40 c-7 22 -10 44
-8 48 9 15 16 -2 18 -45z m-28 -100 c-3 -8 -6 -5 -6 6 -1 11 2 17 5 13 3 -3 4
-12 1 -19z m97 -32 c-6 -16 -24 -23 -24 -8 0 10 22 33 27 28 2 -2 1 -11 -3
-20z m105 -496 c-23 -40 -39 -51 -39 -27 0 19 53 93 58 79 2 -6 -7 -30 -19
-52z"/>
<path d="M1762 3310 c0 -14 2 -19 5 -12 2 6 2 18 0 25 -3 6 -5 1 -5 -13z"/>
<path d="M1770 3200 c-1 -19 -2 -41 -1 -47 1 -7 -4 -13 -11 -13 -7 0 -77 -21
-156 -47 -119 -38 -145 -44 -153 -32 -8 12 -13 6 -11 -12 1 -5 -88 -34 -133
-43 -9 -2 68 -48 191 -113 50 -26 52 -26 79 -9 14 10 31 31 37 47 5 16 14 29
18 29 5 0 1 -24 -9 -52 -10 -29 -22 -53 -28 -53 -5 0 -24 -17 -42 -38 -28 -31
-32 -42 -24 -59 5 -12 6 -34 2 -48 -4 -14 -15 -50 -24 -81 -10 -31 -15 -63
-12 -70 6 -17 -53 -129 -87 -166 -13 -14 -30 -37 -38 -52 -24 -48 -35 -53 -42
-20 -3 17 -3 36 0 41 4 6 -3 31 -14 57 -22 48 -82 257 -82 283 0 8 15 21 33
30 l32 16 -27 10 c-33 14 -45 32 -27 43 8 5 10 9 4 10 -50 7 -57 5 -89 -35
-53 -66 -54 -70 -14 -62 l35 6 22 -137 c12 -75 31 -157 41 -181 24 -53 25 -81
5 -88 -9 -4 -15 -19 -15 -36 0 -26 2 -29 16 -17 10 8 65 14 175 17 l159 5 0
48 c0 26 3 55 7 65 4 12 3 15 -5 10 -26 -16 -31 6 -12 44 11 22 20 44 20 49 0
5 5 22 12 38 6 15 10 34 9 41 -1 6 5 12 13 12 10 0 16 17 21 58 8 72 11 76 58
92 30 9 45 9 67 0 25 -10 52 -4 242 55 117 37 219 72 226 79 11 11 8 17 -20
33 -18 11 -124 73 -235 139 -196 116 -202 120 -206 154 l-4 35 -3 -35z m90
-185 c0 -8 -5 -15 -11 -15 -18 0 -48 -43 -49 -70 -1 -14 -4 -19 -7 -12 -4 10
-11 8 -29 -9 -13 -12 -24 -18 -24 -12 0 6 7 13 15 16 8 4 24 25 36 49 12 24
26 49 31 56 14 17 38 15 38 -3z m-105 -5 c3 -5 -1 -10 -9 -10 -21 0 -38 -36
-32 -63 3 -12 3 -16 0 -9 -4 9 -13 3 -27 -20 -11 -18 -22 -28 -24 -22 -2 7 8
29 22 50 14 20 28 48 31 61 6 24 28 31 39 13z m175 -10 c0 -5 -9 -10 -19 -10
-11 0 -22 -8 -25 -18 -7 -20 -56 -71 -56 -58 0 11 41 69 60 83 18 15 40 17 40
3z m-270 -14 c0 -2 -7 -7 -16 -10 -8 -3 -12 -2 -9 4 6 10 25 14 25 6z"/>
<path d="M990 3196 c-6 -8 -28 -20 -48 -27 -20 -6 -41 -14 -47 -18 -5 -3 -16
-6 -24 -8 -8 -1 -17 -6 -20 -11 -6 -9 -27 -41 -124 -187 -26 -38 -81 -110
-122 -160 -41 -49 -75 -93 -75 -96 0 -4 12 -10 26 -13 14 -4 33 -20 42 -36 20
-35 32 -38 32 -9 0 13 -4 18 -12 13 -10 -6 -10 -5 -1 7 6 8 13 30 15 49 l3 35
58 0 58 0 -5 80 c-5 89 3 113 54 158 29 26 33 27 44 12 11 -16 14 -14 31 11
11 16 28 45 37 64 22 43 35 65 71 112 27 36 33 54 7 24z"/>
<path d="M380 3120 c0 -4 11 -24 25 -44 14 -20 28 -48 31 -61 3 -14 11 -25 16
-25 15 0 81 50 107 82 22 27 22 30 5 27 -10 -1 -30 3 -44 8 -14 6 -30 8 -37 6
-6 -3 -21 1 -33 7 -16 9 -25 8 -38 -2 -9 -7 -13 -8 -9 -2 3 6 0 11 -8 11 -8 0
-15 -3 -15 -7z"/>
<path d="M1210 2949 c0 -5 5 -7 10 -4 6 3 10 8 10 11 0 2 -4 4 -10 4 -5 0 -10
-5 -10 -11z"/>
<path d="M1198 2891 c-5 -57 2 -67 23 -34 25 37 25 73 0 73 -15 0 -20 -9 -23
-39z"/>
<path d="M817 2846 c-9 -13 -20 -46 -25 -75 -8 -45 -7 -53 9 -61 10 -6 25 -10
35 -10 9 0 41 -16 70 -35 29 -19 57 -35 62 -35 5 0 21 -9 36 -21 15 -11 32
-19 40 -16 10 4 56 109 56 129 0 3 -17 8 -37 12 -79 13 -114 28 -146 63 -43
49 -69 73 -78 73 -4 0 -14 -11 -22 -24z"/>
<path d="M466 2565 c4 -8 8 -15 10 -15 2 0 4 7 4 15 0 8 -4 15 -10 15 -5 0 -7
-7 -4 -15z"/>
<path d="M593 2514 c-3 -9 -1 -19 6 -23 9 -6 9 -15 1 -36 -6 -16 -13 -58 -15
-95 -2 -37 -14 -115 -26 -173 -12 -59 -21 -108 -18 -110 9 -8 114 9 112 18 -1
6 -13 43 -27 82 -26 73 -34 159 -16 165 7 2 7 14 1 36 -7 22 -6 46 3 75 13 45
11 77 -5 77 -5 0 -12 -7 -16 -16z"/>
<path d="M436 2378 c-11 -10 -25 -18 -32 -18 -6 0 -16 -19 -22 -42 -14 -56
-61 -379 -64 -443 -3 -47 -2 -50 22 -50 24 0 26 5 61 165 45 208 65 336 59
376 -5 30 -5 30 -24 12z"/>
<path d="M265 2175 c-9 -26 -19 -81 -21 -123 -2 -56 -1 -69 6 -47 10 34 39
208 35 213 -1 1 -10 -18 -20 -43z"/>
<path d="M1105 2179 c-45 -11 -97 -17 -117 -14 -32 4 -38 2 -38 -12 0 -10 -3
-35 -6 -55 -6 -36 -6 -37 32 -44 57 -10 180 -61 247 -101 52 -31 128 -110 139
-145 6 -16 185 5 204 24 7 7 18 31 26 53 14 44 32 70 65 99 l23 19 -6 -54 c-3
-30 -10 -61 -14 -70 -5 -9 -7 -25 -4 -35 6 -22 -11 -75 -23 -73 -21 4 -31 -3
-36 -23 -3 -13 -21 -69 -41 -125 -20 -57 -36 -121 -36 -145 0 -24 -6 -68 -14
-98 -15 -59 -13 -80 3 -36 15 38 31 32 31 -11 0 -22 4 -33 9 -28 10 12 51 130
51 149 0 7 21 24 46 37 40 21 44 27 39 49 -11 41 -8 68 10 107 10 21 19 54 20
74 1 20 5 41 9 48 4 6 1 11 -8 11 -20 0 -20 20 -1 90 8 30 15 73 15 95 0 22 7
49 15 59 8 11 15 27 15 37 0 9 11 24 25 33 30 20 33 46 6 46 -11 0 -23 5 -26
10 -3 6 -23 10 -43 10 -20 0 -50 7 -66 15 -32 17 -76 20 -76 5 0 -5 -7 -10
-16 -10 -9 0 -33 -13 -54 -30 -21 -16 -45 -30 -54 -30 -9 0 -21 -9 -28 -20
-21 -32 -70 -27 -92 11 -11 19 -39 40 -74 57 -32 15 -58 30 -60 35 -4 8 3 9
-97 -14z m508 -45 c7 -8 -17 -34 -32 -34 -13 0 -13 3 -5 24 6 16 25 21 37 10z
m-515 -52 c9 -7 8 -13 -7 -26 -16 -14 -26 -16 -48 -9 -27 10 -27 10 -5 17 12
4 22 12 22 17 0 11 20 12 38 1z m567 -2 c-3 -5 -17 -10 -31 -10 -13 0 -24 5
-24 10 0 6 14 10 31 10 17 0 28 -4 24 -10z m-88 -636 c-9 -9 -28 6 -21 18 4 6
10 6 17 -1 6 -6 8 -13 4 -17z"/>
<path d="M193 2110 c-13 -40 -38 -171 -35 -183 1 -5 -3 -5 -9 -2 -14 9 -88
-69 -106 -112 -7 -18 -13 -58 -13 -90 0 -59 18 -101 63 -150 19 -21 19 -26 7
-76 -13 -58 -4 -113 25 -137 11 -9 14 1 20 57 3 37 12 113 20 168 8 55 17 148
19 207 3 60 11 139 16 177 6 37 10 93 8 122 l-3 54 -12 -35z"/>
<path d="M516 2016 c-28 -67 -118 -357 -113 -363 4 -3 0 -12 -8 -20 -23 -23
-18 -43 10 -43 35 0 31 -17 -4 -25 -26 -5 -32 -14 -45 -58 -27 -97 -39 -142
-39 -154 0 -7 -6 -13 -13 -13 -7 0 -14 6 -17 13 -3 9 -9 7 -24 -5 -11 -10 -29
-18 -41 -18 -12 0 -22 -4 -22 -10 0 -5 -9 -10 -19 -10 -11 0 -23 -5 -26 -10
-4 -6 -10 -8 -15 -5 -4 3 -13 -2 -20 -10 -10 -12 -7 -17 14 -26 14 -7 23 -16
19 -22 -3 -6 -1 -7 5 -3 15 9 174 -72 166 -86 -4 -7 -3 -8 5 -4 16 10 60 -19
71 -47 6 -15 9 4 9 64 1 50 -4 90 -10 96 -6 6 -8 17 -4 23 6 9 10 9 16 -1 5
-9 9 20 9 71 0 47 5 92 10 100 7 10 8 -33 3 -135 -10 -208 -9 -307 5 -330 13
-23 13 -32 16 205 4 248 5 280 15 280 27 0 34 -193 10 -315 -11 -59 -14 -168
-5 -183 3 -6 -4 -12 -16 -14 -13 -2 7 -4 44 -3 l68 0 -2 150 c-1 118 -3 136
-8 85 -5 -43 -7 1 -7 126 0 105 -4 197 -8 205 -5 9 -1 8 10 -3 14 -13 22 -14
41 -6 20 10 28 7 50 -13 l26 -24 -6 -137 c-3 -75 -11 -189 -18 -254 -9 -92 -9
-119 0 -122 7 -2 12 -15 12 -30 0 -25 1 -25 15 -6 8 10 15 14 15 9 0 -6 -5
-16 -11 -22 -6 -6 -20 -40 -29 -75 -10 -35 -19 -55 -19 -46 -1 15 -5 16 -28 7
-15 -6 -31 -16 -35 -22 -4 -7 -7 -88 -6 -182 l1 -170 8 169 c8 157 16 196 40
196 5 0 10 -33 11 -72 l1 -73 6 65 c6 57 7 49 12 -65 8 -194 34 -230 158 -223
76 4 103 19 126 73 11 26 13 27 14 8 1 -12 -11 -36 -26 -54 -15 -18 -21 -30
-13 -27 8 2 25 19 36 36 12 17 25 28 29 24 5 -4 5 1 2 11 -4 10 -7 28 -7 40 0
18 -2 19 -10 7 -7 -10 -9 6 -9 55 1 39 3 63 6 54 5 -20 33 -29 95 -29 45 0 46
-1 55 -38 10 -41 25 -46 35 -10 5 19 6 18 7 -10 1 -31 -1 -33 -26 -30 -24 3
-28 8 -31 41 l-3 37 -60 0 c-67 0 -69 -3 -48 -86 18 -71 46 -87 148 -82 83 3
83 3 117 42 21 24 34 33 34 24 0 -9 -16 -30 -35 -47 -20 -17 -31 -31 -25 -31
7 0 26 14 43 31 19 19 33 27 35 20 2 -7 15 -24 29 -39 l24 -27 -20 30 c-11 17
-23 44 -27 60 -5 25 -2 22 17 -15 29 -54 65 -74 136 -74 62 0 93 15 119 57 15
27 19 57 22 178 7 249 -24 305 -160 296 -37 -2 -65 0 -62 4 3 5 -3 6 -13 2
-31 -11 -36 -15 -24 -22 7 -5 6 -14 -5 -29 -8 -12 -19 -20 -24 -17 -14 9 -30
-30 -30 -74 0 -32 -4 -41 -17 -41 -13 0 -14 3 -6 11 12 12 9 55 -9 100 -15 43
-50 54 -160 53 l-98 -1 0 269 c0 260 1 268 20 268 11 0 26 -12 34 -29 17 -32
42 -47 49 -28 6 20 34 -9 41 -43 3 -20 10 -28 19 -24 16 6 27 -23 27 -73 0
-18 4 -33 9 -33 12 0 71 67 100 113 19 31 22 46 17 85 -11 81 -9 90 27 134 39
49 51 78 49 127 -5 126 -247 256 -549 296 -63 8 -137 15 -164 15 -36 0 -58 6
-76 20 -36 28 -51 25 -67 -14z m339 -87 c150 -16 335 -88 393 -152 9 -10 -15
0 -53 24 -114 69 -269 112 -470 129 -84 7 -86 7 -27 9 34 0 105 -4 157 -10z
m120 -97 c39 -10 93 -31 120 -45 47 -24 115 -79 115 -92 0 -4 14 -27 32 -53
l32 -47 -45 37 c-60 49 -173 101 -279 127 -71 17 -279 39 -395 41 -27 1 -25 3
20 21 28 11 61 25 75 30 40 14 247 2 325 -19z m-15 -102 c104 -30 201 -83 265
-147 64 -62 75 -92 13 -34 -73 70 -233 132 -371 145 l-52 5 50 -10 c152 -31
277 -84 347 -147 38 -34 76 -98 64 -109 -2 -2 -7 4 -10 15 -11 33 -93 102
-159 132 -115 53 -324 91 -487 89 -71 -1 -78 0 -59 11 8 5 48 10 87 12 126 4
77 18 -65 19 -148 0 -152 7 -23 35 95 20 303 12 400 -16z m-39 -121 c155 -38
271 -114 299 -194 11 -30 10 -30 -20 8 -18 20 -52 49 -77 64 -62 36 -170 73
-213 73 -20 0 -41 5 -48 12 -7 7 -68 14 -164 18 l-153 6 50 16 c74 24 222 23
326 -3z m-151 -39 c0 -5 -9 -10 -21 -10 -11 0 -17 5 -14 10 3 6 13 10 21 10 8
0 14 -4 14 -10z m87 -16 c-3 -3 -12 -4 -19 -1 -8 3 -5 6 6 6 11 1 17 -2 13 -5z
m-143 -26 c-5 -8 2 -9 24 -5 21 4 34 2 39 -7 4 -7 19 -19 32 -26 l24 -12 -7
-132 c-4 -72 -11 -176 -14 -232 -8 -122 -6 -134 20 -134 21 0 21 1 15 238 -6
256 -4 292 22 293 9 0 4 7 -14 15 -28 14 -28 15 -4 10 14 -3 43 -8 64 -12 21
-3 47 -10 59 -15 16 -7 13 -8 -13 -3 -48 9 -57 -12 -19 -48 30 -28 30 -29 24
-111 -3 -45 -8 -145 -12 -222 -3 -77 -7 -153 -9 -169 -2 -16 0 -37 5 -46 6
-11 5 -21 -1 -27 -7 -7 -7 -13 -1 -17 5 -3 15 8 22 24 7 17 16 30 21 30 14 0
11 -12 -8 -33 -13 -14 -18 -36 -18 -83 0 -81 -16 -78 -30 7 -19 111 -40 131
-150 139 l-70 5 -5 190 c-3 122 -7 169 -11 130 -4 -47 -6 -34 -7 56 -2 128 6
209 20 209 5 0 6 -5 2 -12z m-177 -180 c-2 -29 -3 -8 -3 47 0 55 1 79 3 53 2
-26 2 -71 0 -100z m503 132 c0 -5 -7 -7 -15 -4 -8 4 -15 8 -15 10 0 2 7 4 15
4 8 0 15 -4 15 -10z m-642 -122 c7 -7 12 -23 12 -36 l0 -25 -21 27 c-11 14
-29 26 -40 26 -11 0 -17 5 -14 10 9 14 48 13 63 -2z m894 -645 c-4 -167 -15
-223 -25 -129 -7 69 -29 107 -79 137 -73 44 -98 69 -97 97 1 21 2 23 6 7 8
-32 23 -42 23 -15 0 19 3 21 9 11 5 -8 7 -20 4 -28 -4 -10 7 -13 43 -15 l49
-1 -45 -4 -44 -4 49 -27 c27 -15 60 -42 72 -61 l23 -34 0 80 c0 67 8 143 14
143 1 0 0 -71 -2 -157z m-489 130 c-7 -2 -19 -2 -25 0 -7 3 -2 5 12 5 14 0 19
-2 13 -5z m650 0 c-7 -2 -19 -2 -25 0 -7 3 -2 5 12 5 14 0 19 -2 13 -5z m-663
-308 c12 0 16 25 20 145 l6 145 2 -151 c2 -127 0 -153 -13 -158 -8 -3 -22 -3
-30 0 -13 5 -15 31 -13 163 l2 156 6 -150 c4 -124 8 -150 20 -150z m638 -2 c1
-2 9 -3 17 -3 12 0 15 26 18 153 l3 152 2 -158 c2 -133 0 -159 -13 -163 -8 -4
-22 -1 -30 6 -12 10 -15 40 -13 164 l2 151 6 -150 c4 -82 8 -151 8 -152z
m-631 85 c-1 -40 -3 -10 -3 67 0 77 1 110 3 73 2 -37 2 -100 0 -140z m651 50
l-2 -123 -6 115 c-3 63 -4 118 -2 123 10 21 12 -5 10 -115z m-188 67 c0 -26 0
-26 -25 -8 -31 23 -31 33 0 33 20 0 25 -5 25 -25z m-255 -35 c10 -11 16 -20
13 -20 -3 0 -13 9 -23 20 -10 11 -16 20 -13 20 3 0 13 -9 23 -20z m11 -35 l37
-25 -42 0 c-37 0 -41 2 -41 25 0 14 2 25 5 25 2 0 21 -11 41 -25z m90 -31 c18
-14 18 -14 -6 -3 -31 14 -36 19 -24 19 6 0 19 -7 30 -16z"/>
<path d="M758 1703 c12 -2 30 -2 40 0 9 3 -1 5 -23 4 -22 0 -30 -2 -17 -4z"/>
<path d="M197 1707 c-11 -29 -9 -43 4 -30 6 6 9 19 7 29 -3 18 -4 18 -11 1z"/>
<path d="M188 1630 c-3 -16 -1 -35 4 -42 4 -8 8 4 8 30 0 49 -6 55 -12 12z"/>
<path d="M1832 1570 c-7 -11 -8 -20 -3 -20 9 0 24 30 18 36 -1 2 -8 -6 -15
-16z"/>
<path d="M236 1496 c-18 -74 -20 -114 -6 -136 9 -13 10 -13 10 0 0 8 5 55 10
104 6 49 9 91 7 93 -3 2 -12 -25 -21 -61z"/>
<path d="M1786 1491 c-36 -69 -32 -78 4 -12 17 30 28 56 26 59 -3 2 -16 -19
-30 -47z"/>
<path d="M175 1520 c3 -5 8 -10 11 -10 2 0 4 5 4 10 0 6 -5 10 -11 10 -5 0 -7
-4 -4 -10z"/>
<path d="M171 1474 c0 -11 3 -14 6 -6 3 7 2 16 -1 19 -3 4 -6 -2 -5 -13z"/>
<path d="M170 1425 c-7 -57 -6 -95 3 -86 4 4 6 32 4 62 -2 35 -5 44 -7 24z"/>
<path d="M1474 1283 c-3 -16 -12 -49 -20 -75 -18 -58 -17 -68 1 -44 8 11 15
30 15 42 0 12 7 38 15 57 18 43 18 47 5 47 -5 0 -12 -12 -16 -27z"/>
<path d="M77 683 c-4 -306 -6 -558 -4 -559 2 -2 31 11 65 29 l62 32 0 196 0
196 60 22 c33 12 68 33 80 48 11 14 23 23 27 20 11 -12 -31 -49 -82 -73 -27
-13 -43 -24 -35 -24 30 1 96 38 123 69 l26 32 4 -133 c2 -109 3 -99 4 52 0
108 -2 171 -7 152 -12 -51 -22 -52 -13 -2 14 81 9 250 -11 307 -14 43 -25 57
-64 81 -58 36 -208 112 -220 112 -5 0 -12 -244 -15 -557z m158 337 c3 -5 0
-10 -7 -10 -10 0 -13 -27 -11 -123 2 -152 1 -143 15 -129 8 8 12 38 10 80 -1
37 2 85 7 107 7 32 9 17 10 -72 1 -115 -8 -143 -45 -143 -11 0 -14 26 -14 143
0 79 3 147 7 150 9 10 21 9 28 -3z"/>
<path d="M1068 1118 c-3 -68 -1 -130 3 -138 5 -8 9 47 9 123 0 75 -2 137 -4
137 -2 0 -6 -55 -8 -122z"/>
<path d="M1995 1210 c-3 -5 -30 -17 -60 -26 l-55 -18 0 -88 c0 -81 -2 -88 -20
-88 -18 0 -20 -7 -20 -63 0 -60 1 -64 23 -63 l22 1 5 -275 c5 -271 5 -276 31
-331 28 -59 69 -98 132 -124 l37 -15 0 88 c0 84 -1 89 -29 113 -38 33 -43 84
-39 364 3 207 3 210 25 213 26 4 29 16 25 88 -4 49 -6 54 -28 54 -24 0 -24 2
-24 90 0 81 -8 107 -25 80z"/>
<path d="M1730 1176 c-27 -7 -44 -17 -42 -24 1 -8 -8 -28 -20 -45 -18 -24 -24
-49 -27 -105 -2 -51 -8 -75 -17 -79 -20 -8 -19 -103 1 -103 13 0 15 -33 15
-237 l0 -238 65 -27 65 -27 0 280 c0 272 0 279 20 279 18 0 20 7 20 61 0 56
-1 60 -21 54 -19 -6 -20 -3 -17 47 2 44 7 55 26 63 19 8 22 17 22 62 0 60 -5
62 -90 39z"/>
<path d="M1860 1095 l0 -65 -27 6 c-38 9 -41 14 -15 21 17 4 22 12 21 37 -2
27 -3 27 -6 6 -2 -14 -14 -30 -26 -35 -30 -13 -38 -85 -10 -85 10 0 28 7 39
15 12 8 24 11 28 8 3 -3 6 30 6 75 0 45 -2 82 -5 82 -3 0 -5 -29 -5 -65z"/>
<path d="M1426 1034 c-8 -21 -8 -20 10 -38 8 -9 28 -16 44 -16 16 0 33 -7 38
-16 5 -9 12 -15 15 -15 21 3 28 -4 46 -51 l21 -53 -2 50 c-2 40 1 50 15 53 13
3 17 13 16 45 l-2 42 -7 -40 c-6 -31 -7 -34 -9 -12 -1 29 -7 31 -64 18 -50
-12 -76 -4 -83 25 -7 27 -29 32 -38 8z"/>
<path d="M401 1024 c0 -11 3 -14 6 -6 3 7 2 16 -1 19 -3 4 -6 -2 -5 -13z"/>
<path d="M412 980 c0 -14 2 -19 5 -12 2 6 2 18 0 25 -3 6 -5 1 -5 -13z"/>
<path d="M1388 963 c7 -3 16 -2 19 1 4 3 -2 6 -13 5 -11 0 -14 -3 -6 -6z"/>
<path d="M1093 953 c15 -2 39 -2 55 0 15 2 2 4 -28 4 -30 0 -43 -2 -27 -4z"/>
<path d="M580 930 c0 -11 -4 -20 -8 -20 -5 0 -14 -10 -20 -22 -11 -23 -11 -23
-11 4 -1 33 -4 35 -69 44 l-52 7 0 -313 0 -312 28 7 c15 3 43 14 61 23 l35 17
4 200 c4 211 11 245 51 245 23 0 27 10 30 73 2 37 -1 47 -13 47 -9 0 -16 5
-16 10 0 6 -4 10 -10 10 -5 0 -10 -9 -10 -20z"/>
<path d="M641 910 c0 -32 2 -40 9 -29 5 9 6 28 0 45 -8 27 -8 26 -9 -16z"/>
<path d="M1822 885 c0 -16 2 -22 5 -12 2 9 2 23 0 30 -3 6 -5 -1 -5 -18z"/>
<path d="M2058 883 c6 -2 18 -2 25 0 6 3 1 5 -13 5 -14 0 -19 -2 -12 -5z"/>
<path d="M2032 860 c0 -14 2 -19 5 -12 2 6 2 18 0 25 -3 6 -5 1 -5 -13z"/>
<path d="M1803 843 c-22 -4 -22 -5 -16 -171 3 -92 7 -169 9 -171 2 -2 4 70 4
161 0 163 0 166 23 172 12 3 25 6 28 6 4 0 8 -112 10 -250 3 -196 7 -252 18
-262 11 -11 13 -11 6 1 -4 7 -9 124 -11 260 -2 135 -4 249 -4 254 0 7 -29 7
-67 0z"/>
<path d="M2033 780 c0 -30 2 -43 4 -27 2 15 2 39 0 55 -2 15 -4 2 -4 -28z"/>
<path d="M1609 803 c0 -4 0 -55 1 -113 1 -93 -6 -154 -25 -216 -4 -12 -1 -10
9 6 8 14 16 34 17 45 2 11 5 -11 9 -50 4 -48 7 -9 8 127 1 122 -2 199 -8 203
-5 3 -10 3 -11 -2z"/>
<path d="M218 511 c-5 -35 -7 -116 -7 -180 l2 -116 8 75 c5 41 8 122 7 180 -3
103 -3 104 -10 41z"/>
<path d="M640 485 c0 -5 5 -17 10 -25 5 -8 10 -10 10 -5 0 6 -5 17 -10 25 -5
8 -10 11 -10 5z"/>
<path d="M970 471 c0 -5 7 -15 17 -22 15 -13 15 -12 4 9 -12 23 -21 28 -21 13z"/>
<path d="M1791 424 c0 -11 3 -14 6 -6 3 7 2 16 -1 19 -3 4 -6 -2 -5 -13z"/>
<path d="M1053 423 c9 -2 25 -2 35 0 9 3 1 5 -18 5 -19 0 -27 -2 -17 -5z"/>
<path d="M1138 423 c12 -2 30 -2 40 0 9 3 -1 5 -23 4 -22 0 -30 -2 -17 -4z"/>
<path d="M728 403 c7 -3 16 -2 19 1 4 3 -2 6 -13 5 -11 0 -14 -3 -6 -6z"/>
<path d="M795 400 l-40 -7 35 -1 c19 0 44 3 55 8 24 10 7 10 -50 0z"/>
<path d="M1385 400 c19 -8 103 -14 94 -6 -2 2 -29 6 -59 9 -34 3 -47 2 -35 -3z"/>
<path d="M895 384 c-61 -9 -213 -47 -318 -80 -109 -33 -385 -159 -375 -170 4
-3 19 1 35 9 83 43 329 125 452 152 78 16 289 35 401 35 44 0 130 -7 192 -15
62 -9 131 -18 153 -21 83 -10 414 -126 542 -189 145 -72 127 -49 -32 39 -183
102 -365 168 -605 221 -63 14 -383 27 -445 19z"/>
<path d="M1622 339 c4 -11 160 -81 166 -74 3 3 -17 14 -44 25 -27 11 -66 29
-87 40 -21 10 -37 15 -35 9z"/>
<path d="M168 154 c-27 -13 -48 -27 -48 -29 0 -3 23 6 50 20 28 14 50 28 50
30 0 7 1 7 -52 -21z"/>
<path d="M534 145 c-4 -8 -4 -22 0 -30 5 -13 74 -15 541 -15 l536 0 -3 28 -3
27 -533 3 c-467 2 -533 0 -538 -13z"/>
<path d="M561 23 c0 -15 3 -22 6 -15 4 10 8 10 21 0 13 -11 14 -10 4 9 -19 34
-32 37 -31 6z"/>
<path d="M632 25 c0 -17 2 -22 5 -12 2 9 2 23 0 30 -3 6 -5 -1 -5 -18z"/>
<path d="M662 25 c0 -17 2 -22 5 -12 2 9 2 23 0 30 -3 6 -5 -1 -5 -18z"/>
<path d="M732 25 c0 -17 2 -22 5 -12 2 9 2 23 0 30 -3 6 -5 -1 -5 -18z"/>
<path d="M760 25 c0 -21 4 -25 28 -24 23 2 24 2 5 6 -32 6 -29 31 5 36 25 4
25 4 -5 6 -29 1 -33 -2 -33 -24z"/>
<path d="M941 22 c-10 -23 -10 -25 2 -10 8 10 17 15 20 11 4 -3 7 -1 7 5 0 23
-18 20 -29 -6z"/>
<path d="M1140 25 c0 -21 4 -25 28 -24 23 2 24 2 5 6 -32 6 -29 31 5 36 25 4
25 4 -5 6 -29 1 -33 -2 -33 -24z"/>
<path d="M1221 23 c1 -23 2 -24 6 -6 2 12 12 24 21 26 12 3 10 5 -5 6 -19 1
-23 -4 -22 -26z"/>
<path d="M1382 25 c0 -17 2 -22 5 -12 2 9 2 23 0 30 -3 6 -5 -1 -5 -18z"/>
<path d="M1458 43 c7 -3 16 -2 19 1 4 3 -2 6 -13 5 -11 0 -14 -3 -6 -6z"/>
<path d="M1531 23 c1 -18 3 -22 6 -10 5 18 5 18 19 0 14 -17 14 -16 4 4 -16
34 -30 37 -29 6z"/>
<path d="M1602 25 c0 -17 2 -22 5 -12 2 9 2 23 0 30 -3 6 -5 -1 -5 -18z"/>
<path d="M840 35 c0 -5 5 -17 10 -25 5 -8 10 -11 10 -5 0 6 -5 17 -10 25 -5 8
-10 11 -10 5z"/>
<path d="M1274 20 c0 -13 4 -16 10 -10 7 7 7 13 0 20 -6 6 -10 3 -10 -10z"/>
<path d="M1310 21 c0 -10 19 -25 25 -20 1 2 -3 10 -11 17 -8 7 -14 8 -14 3z"/>
</g>
</svg>
